<svg xmlns="http://www.w3.org/2000/svg" viewBox="0 0 40 30">
  <!-- Red background -->
  <rect width="40" height="30" fill="#DE2910"/>
  
  <!-- Large star -->
  <path d="M8,6 L9.47,10.53 L14,12 L9.47,13.47 L8,18 L6.53,13.47 L2,12 L6.53,10.53 Z" fill="#FFDE00"/>
  
  <!-- Small stars -->
  <path d="M17,4 L17.31,5.03 L18.5,5.25 L17.75,6.05 L17.93,7.25 L17,6.75 L16.07,7.25 L16.25,6.05 L15.5,5.25 L16.69,5.03 Z" fill="#FFDE00"/>
  <path d="M20,7 L20.31,8.03 L21.5,8.25 L20.75,9.05 L20.93,10.25 L20,9.75 L19.07,10.25 L19.25,9.05 L18.5,8.25 L19.69,8.03 Z" fill="#FFDE00"/>
  <path d="M20,13 L20.31,14.03 L21.5,14.25 L20.75,15.05 L20.93,16.25 L20,15.75 L19.07,16.25 L19.25,15.05 L18.5,14.25 L19.69,14.03 Z" fill="#FFDE00"/>
  <path d="M17,16 L17.31,17.03 L18.5,17.25 L17.75,18.05 L17.93,19.25 L17,18.75 L16.07,19.25 L16.25,18.05 L15.5,17.25 L16.69,17.03 Z" fill="#FFDE00"/>
</svg>
